<svg xmlns="http://www.w3.org/2000/svg" xmlns:xlink="http://www.w3.org/1999/xlink" fill="none" version="1.1" width="251" height="248" viewBox="0 0 251 248"><g style="mix-blend-mode:passthrough"><g><g style="mix-blend-mode:passthrough"><rect x="0" y="0" width="251" height="248" rx="59" fill="#000000" fill-opacity="1"/></g><g style="mix-blend-mode:passthrough"><path d="M70.00000517247,200C70.00000231579,208.284,76.71573,215,85,215L92.9998,215C101.2841,215,107.9998,208.284,107.9998,200L107.9998,145L135.2975,145L162.5952,145L172,145C180.284,145,187,138.284,187,130L187,127C187,118.7157,180.284,112,172,112L164.9761,112L117.9998,112C112.477,112,107.9998,107.5229,107.9998,102L107.9998,79C107.9998,73.47710000000001,112.477,69,117.9998,69L172,69C180.284,69,187,62.2843,187,54L187,53C187,44.71573,180.284,38,172,38L90.0001,38C78.95436,38,70.0000579474,46.9543,70.0000541385,58L70.00000517247,200Z" fill="#FFF5F5" fill-opacity="1"/><path d="M135.2975,145.5L107.9998,145.5L107.9998,145L108.4998,145L108.4998,200Q108.4998,203.153,107.2816,206.033Q106.10499999999999,208.815,103.96000000000001,210.96Q101.8149,213.105,99.0333,214.282Q96.15299999999999,215.5,92.9998,215.5L85,215.5Q81.8468,215.5,78.96655,214.282Q76.18493,213.105,74.03985,210.96Q71.89488,208.815,70.718275,206.033Q69.500004,203.153,69.500005,200L69.500054,58Q69.500056,53.8296,71.11125,50.0203Q72.66732,46.34135,75.50437,43.504310000000004Q78.34142,40.66726,82.0204,39.11119Q85.8297,37.499998,90.0001,37.499998L172,37.5Q175.15300000000002,37.5,178.03300000000002,38.718272Q180.815,39.89482,182.95999999999998,42.03984Q185.10500000000002,44.18485,186.28199999999998,46.96655Q187.5,49.8468,187.5,53L187.5,54Q187.5,57.1532,186.28199999999998,60.0334Q185.10500000000002,62.8151,182.95999999999998,64.9601Q180.815,67.1052,178.03300000000002,68.2817Q175.15300000000002,69.5,172,69.5L117.9999,69.5Q116.0667,69.5,114.3022,70.24629999999999Q112.5974,70.9674,111.28229999999999,72.2825Q109.96719999999999,73.5976,109.2462,75.3023Q108.4998,77.0669,108.4998,79L108.4998,102Q108.4998,103.9331,109.2462,105.6977Q109.96719999999999,107.4024,111.28229999999999,108.7175Q112.5974,110.0326,114.3022,110.7536Q116.0667,111.5,117.9998,111.5L164.9761,111.5L172,111.5Q175.15300000000002,111.5,178.03300000000002,112.7183Q180.815,113.8948,182.95999999999998,116.0398Q185.10500000000002,118.1848,186.28199999999998,120.9665Q187.5,123.8468,187.5,127L187.5,130Q187.5,133.1532,186.28199999999998,136.0335Q185.10500000000002,138.815,182.95999999999998,140.95999999999998Q180.815,143.10500000000002,178.03300000000002,144.28199999999998Q175.15300000000002,145.5,172,145.5L162.5952,145.5L135.2975,145.5ZM135.2975,144.5L162.5952,144.5L172,144.5Q174.95,144.5,177.644,143.361Q180.24599999999998,142.26,182.253,140.253Q184.26,138.24599999999998,185.361,135.6439Q186.5,132.9503,186.5,130L186.5,127Q186.5,124.0496,185.361,121.3561Q184.26,118.754,182.253,116.747Q180.24599999999998,114.7399,177.644,113.6393Q174.95,112.5,172,112.5L164.9761,112.5L117.9998,112.5Q115.8639,112.5,113.9126,111.6747Q112.0282,110.8776,110.5752,109.4246Q109.12219999999999,107.9716,108.3252,106.0872Q107.4999,104.1359,107.4998,102L107.4998,79Q107.4998,76.86410000000001,108.3252,74.9128Q109.12219999999999,73.0284,110.5752,71.5754Q112.0282,70.1224,113.9126,69.3253Q115.864,68.5,117.9999,68.5L172,68.5Q174.95,68.5,177.644,67.36070000000001Q180.24599999999998,66.2601,182.253,64.253Q184.26,62.2459,185.361,59.6439Q186.5,56.9504,186.5,54L186.5,53Q186.5,50.0496,185.361,47.3561Q184.26,44.75404,182.253,42.74695Q180.24599999999998,40.73984,177.644,39.63928Q174.95,38.5,172,38.5L90.0001,38.499998Q86.0325,38.499998,82.4099,40.0322Q78.9106,41.51228,76.21147,44.21141Q73.51235,46.91054,72.03226,50.4099Q70.500056,54.032399999999996,70.500054,58L70.500005,200Q70.500004,202.95,71.63928,205.644Q72.73991,208.246,74.74695,210.253Q76.75412,212.26,79.3561,213.361Q82.0496,214.5,85,214.5L92.9998,214.5Q95.9503,214.5,98.6437,213.361Q101.2457,212.26,103.2529,210.253Q105.2599,208.246,106.3606,205.644Q107.4998,202.95,107.4998,200L107.4998,144.5L135.2975,144.5Z" fill="#FFC918" fill-opacity="1"/></g><path d="M204.6615478515625,222.18098359375L200.7730478515625,219.14488359375C199.9024478515625,218.46508359375,198.5594878515625,218.73008359375,197.7735378515625,219.73668359375L197.2991178515625,220.34428359375L195.6176578515625,219.03138359375L196.0920278515625,218.42378359375C196.8780378515625,217.41718359375,196.8094278515625,216.05008359375,195.9387678515625,215.37028359375L192.0503378515625,212.33418359375C190.3090648515625,210.97468359375,190.1718578515625,208.24038359375,191.7438178515625,206.22708359375L192.6926078515625,205.01198359375L194.7944778515625,206.65308359375L193.8456878515625,207.86818359375C193.3216978515625,208.53938359375,193.3674778515625,209.45078359375,193.9478578515625,209.90388359375L198.2566978515625,213.26818359375C199.1644078515625,213.97658359375,199.4439478515625,215.27848359375,198.9498778515625,216.49688359375C200.0120678515625,215.72208359375,201.34294785156249,215.67748359375,202.2502478515625,216.38638359375L206.5590478515625,219.75068359375C207.1395478515625,220.20378359375,208.03474785156249,220.02718359375,208.5587478515625,219.35608359375L209.5075478515625,218.14088359375L211.6094478515625,219.78208359375L210.6606478515625,220.99718359375C209.08864785156248,223.01048359375,206.4027478515625,223.54048359375,204.6615478515625,222.18098359375ZM215.9534478515625,199.70257359375L219.8418478515625,202.73868359375C221.5831478515625,204.09818359375,221.7203478515625,206.83248359375,220.1483478515625,208.84578359375L219.1995478515625,210.06088359375L217.0977478515625,208.41978359375L218.0464478515625,207.20468359375C218.5704478515625,206.53358359375,218.5247478515625,205.62208359375,217.9443478515625,205.16898359375L213.6354478515625,201.80466359375C212.7277478515625,201.09631359375,212.44824785156248,199.79437359375,212.9423478515625,198.57599359375C211.8801478515625,199.35080359375,210.54934785156252,199.39538359375,209.6419478515625,198.68652359375L205.3331478515625,195.32223359375C204.7527478515625,194.86905359375,203.8574478515625,195.04571359375,203.3334478515625,195.71683359375L202.3846478515625,196.93194359375L200.2827578515625,195.29083359375L201.2315478515625,194.07568359375C202.8035478515625,192.06237979375,205.4894478515625,191.53241159375,207.2306478515625,192.89193959375L211.1191478515625,195.92801359375C211.9897478515625,196.60779359375,213.3326478515625,196.34280359375,214.1186478515625,195.33615359375L214.5930478515625,194.72857359375L216.2745478515625,196.04147359375L215.80014785156249,196.64905359375C215.01424785156252,197.65570359375,215.0828478515625,199.02283359375,215.9534478515625,199.70257359375Z" fill="#D8D8D8" fill-opacity="1"/></g></g></svg>